<svg width="417" height="51" viewBox="0 0 417 51" fill="none" xmlns="http://www.w3.org/2000/svg">
<path d="M0 10C0 4.47715 4.47715 0 10 0H41C46.5228 0 51 4.47715 51 10V41C51 46.5228 46.5228 51 41 51H10C4.47715 51 0 46.5228 0 41V10Z" fill="white"/>
<path d="M73 10C73 4.47715 77.4771 0 83 0H114C119.523 0 124 4.47715 124 10V41C124 46.5228 119.523 51 114 51H83C77.4771 51 73 46.5228 73 41V10Z" fill="white"/>
<path d="M149.5 10C149.5 4.47715 153.977 0 159.5 0H190.5C196.023 0 200.5 4.47715 200.5 10V41C200.5 46.5228 196.023 51 190.5 51H159.5C153.977 51 149.5 46.5228 149.5 41V10Z" fill="white"/>
<path d="M220 10C220 4.47715 224.477 0 230 0H261C266.523 0 271 4.47715 271 10V41C271 46.5228 266.523 51 261 51H230C224.477 51 220 46.5228 220 41V10Z" fill="white"/>
<path d="M291.5 10C291.5 4.47715 295.977 0 301.5 0H332.5C338.023 0 342.5 4.47715 342.5 10V41C342.5 46.5228 338.023 51 332.5 51H301.5C295.977 51 291.5 46.5228 291.5 41V10Z" fill="white"/>
<path d="M365.5 10C365.5 4.47715 369.977 0 375.5 0H406.5C412.023 0 416.5 4.47715 416.5 10V41C416.5 46.5228 412.023 51 406.5 51H375.5C369.977 51 365.5 46.5228 365.5 41V10Z" fill="white"/>
</svg>
